<svg xmlns="http://www.w3.org/2000/svg" viewBox="0 0 128 128" fill="none">
  <!-- Background circle with gradient -->
  <defs>
    <linearGradient id="bg-gradient" x1="0%" y1="0%" x2="100%" y2="100%">
      <stop offset="0%" style="stop-color:#10b981;stop-opacity:1" />
      <stop offset="100%" style="stop-color:#059669;stop-opacity:1" />
    </linearGradient>
    <linearGradient id="sun-gradient" x1="0%" y1="0%" x2="100%" y2="100%">
      <stop offset="0%" style="stop-color:#fbbf24;stop-opacity:1" />
      <stop offset="100%" style="stop-color:#f59e0b;stop-opacity:1" />
    </linearGradient>
  </defs>
  
  <!-- Background -->
  <circle cx="64" cy="64" r="62" fill="url(#bg-gradient)"/>
  
  <!-- Sun -->
  <circle cx="90" cy="30" r="12" fill="url(#sun-gradient)"/>
  <circle cx="90" cy="30" r="8" fill="#fef3c7" opacity="0.8"/>
  
  <!-- Mountain/Hill silhouette -->
  <path d="M 10 85 Q 35 60 50 70 Q 65 80 80 65 Q 95 50 118 80 L 118 118 L 10 118 Z" fill="#047857" opacity="0.6"/>
  
  <!-- Wheat stalk (left) -->
  <g transform="translate(30, 55)">
    <!-- Stem -->
    <line x1="0" y1="35" x2="0" y2="0" stroke="#fef3c7" stroke-width="2.5" stroke-linecap="round"/>
    <!-- Grains -->
    <ellipse cx="-3" cy="5" rx="3" ry="5" fill="#fbbf24" opacity="0.9"/>
    <ellipse cx="3" cy="8" rx="3" ry="5" fill="#fbbf24" opacity="0.9"/>
    <ellipse cx="-3" cy="11" rx="3" ry="5" fill="#fbbf24" opacity="0.9"/>
    <ellipse cx="3" cy="14" rx="3" ry="5" fill="#fbbf24" opacity="0.9"/>
    <ellipse cx="-3" cy="17" rx="3" ry="5" fill="#fbbf24" opacity="0.9"/>
    <ellipse cx="3" cy="20" rx="3" ry="5" fill="#fbbf24" opacity="0.9"/>
  </g>
  
  <!-- Wheat stalk (center) -->
  <g transform="translate(50, 50)">
    <line x1="0" y1="40" x2="0" y2="0" stroke="#fef3c7" stroke-width="2.5" stroke-linecap="round"/>
    <ellipse cx="-3" cy="5" rx="3" ry="5" fill="#fbbf24" opacity="0.9"/>
    <ellipse cx="3" cy="8" rx="3" ry="5" fill="#fbbf24" opacity="0.9"/>
    <ellipse cx="-3" cy="11" rx="3" ry="5" fill="#fbbf24" opacity="0.9"/>
    <ellipse cx="3" cy="14" rx="3" ry="5" fill="#fbbf24" opacity="0.9"/>
    <ellipse cx="-3" cy="17" rx="3" ry="5" fill="#fbbf24" opacity="0.9"/>
    <ellipse cx="3" cy="20" rx="3" ry="5" fill="#fbbf24" opacity="0.9"/>
    <ellipse cx="-3" cy="23" rx="3" ry="5" fill="#fbbf24" opacity="0.9"/>
  </g>
  
  <!-- Wheat stalk (right) -->
  <g transform="translate(70, 58)">
    <line x1="0" y1="32" x2="0" y2="0" stroke="#fef3c7" stroke-width="2.5" stroke-linecap="round"/>
    <ellipse cx="-3" cy="5" rx="3" ry="5" fill="#fbbf24" opacity="0.9"/>
    <ellipse cx="3" cy="8" rx="3" ry="5" fill="#fbbf24" opacity="0.9"/>
    <ellipse cx="-3" cy="11" rx="3" ry="5" fill="#fbbf24" opacity="0.9"/>
    <ellipse cx="3" cy="14" rx="3" ry="5" fill="#fbbf24" opacity="0.9"/>
    <ellipse cx="-3" cy="17" rx="3" ry="5" fill="#fbbf24" opacity="0.9"/>
    <ellipse cx="3" cy="20" rx="3" ry="5" fill="#fbbf24" opacity="0.9"/>
  </g>
  
  <!-- Ground line -->
  <rect x="0" y="90" width="128" height="38" fill="#065f46"/>
  
  <!-- Tech element - connection dots -->
  <circle cx="30" cy="95" r="2.5" fill="#34d399" opacity="0.8"/>
  <circle cx="50" cy="95" r="2.5" fill="#34d399" opacity="0.8"/>
  <circle cx="70" cy="95" r="2.5" fill="#34d399" opacity="0.8"/>
  <line x1="30" y1="95" x2="50" y2="95" stroke="#34d399" stroke-width="1.5" opacity="0.6"/>
  <line x1="50" y1="95" x2="70" y2="95" stroke="#34d399" stroke-width="1.5" opacity="0.6"/>
</svg>
